<?xml version="1.0" encoding="UTF-8" standalone="no"?>
<!DOCTYPE svg PUBLIC "-//W3C//DTD SVG 1.1//EN" "http://www.w3.org/Graphics/SVG/1.1/DTD/svg11.dtd">
<!-- Created with Vectornator (http://vectornator.io/) -->
<svg height="100%" stroke-miterlimit="10" style="fill-rule:nonzero;clip-rule:evenodd;stroke-linecap:round;stroke-linejoin:round;" version="1.1" viewBox="0 0 24.5 17.5" width="100%" xml:space="preserve" xmlns="http://www.w3.org/2000/svg" xmlns:xlink="http://www.w3.org/1999/xlink">
<defs/>
<g id="无标题">
<path d="M1.216 12.466C1.216 12.466 5.039 9.3 7.088 9.3C9.138 9.3 15.072 13.291 16.754 13.291C18.437 13.291 22.016 10.126 22.016 10.126" fill="none" opacity="1" stroke="#000000" stroke-linecap="butt" stroke-linejoin="miter" stroke-width="1.6"/>
<path d="M5.216 1.3C6.541 1.3 7.616 2.374 7.616 3.7C7.616 5.025 6.541 6.1 5.216 6.1C3.89 6.1 2.816 5.025 2.816 3.7C2.816 2.374 3.89 1.3 5.216 1.3Z" fill="none" opacity="1" stroke="#000000" stroke-linecap="butt" stroke-linejoin="miter" stroke-width="1.6"/>
<path d="M12.25 3.7C13.575 3.7 14.65 4.774 14.65 6.1C14.65 7.425 13.575 8.5 12.25 8.5C10.924 8.5 9.85 7.425 9.85 6.1C9.85 4.774 10.924 3.7 12.25 3.7Z" fill="none" opacity="1" stroke="#000000" stroke-linecap="butt" stroke-linejoin="miter" stroke-width="1.6"/>
<path d="M18.416 1.3C19.52 1.3 20.416 2.195 20.416 3.3C20.416 4.405 19.52 5.3 18.416 5.3C17.311 5.3 16.416 4.405 16.416 3.3C16.416 2.195 17.311 1.3 18.416 1.3Z" fill="none" opacity="1" stroke="#000000" stroke-linecap="butt" stroke-linejoin="miter" stroke-width="1.6"/>
<path d="M21.0508 14.228L21.0412 16.4091C22.0739 16.6282 24.8521 14.5953 21.0508 14.228Z" fill="none" opacity="1" stroke="#000000" stroke-linecap="butt" stroke-linejoin="miter" stroke-width="1"/>
</g>
</svg>
