<?xml version="1.0" encoding="UTF-8" standalone="no"?>
<!DOCTYPE svg PUBLIC "-//W3C//DTD SVG 1.1//EN" "http://www.w3.org/Graphics/SVG/1.1/DTD/svg11.dtd">
<!-- Created with Vectornator (http://vectornator.io/) -->
<svg height="100%" stroke-miterlimit="10" style="fill-rule:nonzero;clip-rule:evenodd;stroke-linecap:round;stroke-linejoin:round;" version="1.1" viewBox="1 1.01285 22 19.9872" width="100%" xml:space="preserve" xmlns="http://www.w3.org/2000/svg" xmlns:vectornator="http://vectornator.io" xmlns:xlink="http://www.w3.org/1999/xlink">
<defs/>
<g id="无标题" vectornator:layerName="无标题">
<path d="M17 6L16 6L16 5C16 3.9 15.1 3 14 3L10 3C8.9 3 8 3.9 8 5L8 6L7 6C3.69 6 1 8.69 1 12C1 15.31 3.69 18 7 18L7 21L9 21L9 18L15 18L15 21L17 21L17 18C20.31 18 23 15.31 23 12C23 8.69 20.31 6 17 6M10 5L14 5L14 6L10 6L10 5M17 16L7 16C4.79 16 3 14.21 3 12C3 9.79 4.79 8 7 8L17 8C19.21 8 21 9.79 21 12C21 14.21 19.21 16 17 16Z" fill="currentColor" fill-rule="nonzero" opacity="1" stroke="none" vectornator:layerName="path"/>
<path d="M21.2267 1.244C21.1469 1.10127 20.9961 1.01285 20.8326 1.01285C20.6691 1.01285 20.5183 1.10127 20.4385 1.244L18.7215 4.31525C18.6434 4.45503 18.6451 4.62574 18.7261 4.76391C18.807 4.90207 18.9551 4.98702 19.1153 4.98715L22.5485 4.98715C22.7087 4.98715 22.8569 4.90225 22.9379 4.76406C23.019 4.62588 23.0208 4.45509 22.9426 4.31525C22.9426 4.31525 21.2267 1.244 21.2267 1.244ZM21.1032 3.99375C21.1032 4.14338 20.9819 4.26468 20.8322 4.26468C20.6826 4.26468 20.5613 4.14338 20.5613 3.99375C20.5613 3.84412 20.6826 3.72282 20.8322 3.72282C20.9819 3.72282 21.1032 3.84412 21.1032 3.99375ZM20.6516 3.18096L20.6516 2.27787C20.6516 2.17811 20.7325 2.09725 20.8322 2.09725C20.932 2.09725 21.0128 2.17811 21.0128 2.27787L21.0128 3.18096C21.0128 3.28072 20.932 3.36158 20.8322 3.36158C20.7325 3.36158 20.6516 3.28072 20.6516 3.18096Z" fill="currentColor" fill-rule="nonzero" opacity="1" stroke="none" vectornator:layerName="path 1"/>
<path d="M12.6306 14.4127L11.3694 14.4127L11.3694 13.551L10.9491 13.551L12 12L13.0509 13.551L12.6306 13.551L12.6306 14.4127ZM12 12L10.9491 10.449L11.3694 10.449L11.3694 9.58735L12.6306 9.58735L12.6306 10.449L13.0509 10.449L12 12Z" fill="currentColor" fill-rule="nonzero" opacity="1" stroke="none" vectornator:layerName="path 2"/>
</g>
</svg>
